# Blender v2.80 (sub 75) OBJ File: 'car.blend'
# www.blender.org
mtllib carCollision.mtl
o Cube.002_Cube.003
v -1.142153 -0.583051 2.370246
v -1.142153 1.125542 2.370246
v -1.142153 -0.583051 -1.829303
v -1.142153 1.125542 -1.829303
v 1.142153 -0.583051 2.370246
v 1.142153 1.125542 2.370246
v 1.142153 -0.583051 -1.829303
v 1.142153 1.125542 -1.829303
vt 0.625000 0.000000
vt 0.375000 0.250000
vt 0.375000 0.000000
vt 0.625000 0.250000
vt 0.375000 0.500000
vt 0.625000 0.500000
vt 0.375000 0.750000
vt 0.625000 0.750000
vt 0.375000 1.000000
vt 0.125000 0.750000
vt 0.125000 0.500000
vt 0.875000 0.500000
vt 0.625000 1.000000
vt 0.875000 0.750000
vn -1.0000 0.0000 0.0000
vn 0.0000 0.0000 -1.0000
vn 1.0000 0.0000 0.0000
vn 0.0000 0.0000 1.0000
vn 0.0000 -1.0000 0.0000
vn 0.0000 1.0000 0.0000
usemtl None
s off
f 2/1/1 3/2/1 1/3/1
f 4/4/2 7/5/2 3/2/2
f 8/6/3 5/7/3 7/5/3
f 6/8/4 1/9/4 5/7/4
f 7/5/5 1/10/5 3/11/5
f 4/12/6 6/8/6 8/6/6
f 2/1/1 4/4/1 3/2/1
f 4/4/2 8/6/2 7/5/2
f 8/6/3 6/8/3 5/7/3
f 6/8/4 2/13/4 1/9/4
f 7/5/5 5/7/5 1/10/5
f 4/12/6 2/14/6 6/8/6
o Cube.003_Cube
v -0.990903 -0.974928 -0.800682
v -0.990903 -0.142513 -0.800682
v -0.990903 -0.974928 -1.619270
v -0.990903 -0.142513 -1.619270
v -0.640987 -0.974928 -0.800682
v -0.640987 -0.142513 -0.800682
v -0.640987 -0.974928 -1.619270
v -0.640987 -0.142513 -1.619270
v -0.990903 -0.888831 2.143758
v -0.990903 -0.263440 2.143758
v -0.990903 -0.888831 1.487600
v -0.990903 -0.263440 1.487600
v -0.640987 -0.888831 2.143758
v -0.640987 -0.263440 2.143758
v -0.640987 -0.888831 1.487600
v -0.640987 -0.263440 1.487600
v 0.990903 -0.974928 -0.800682
v 0.990903 -0.142513 -0.800682
v 0.990903 -0.974928 -1.619270
v 0.990903 -0.142513 -1.619270
v 0.640987 -0.974928 -0.800682
v 0.640987 -0.142513 -0.800682
v 0.640987 -0.974928 -1.619270
v 0.640987 -0.142513 -1.619270
v 0.990903 -0.888831 2.143758
v 0.990903 -0.263440 2.143758
v 0.990903 -0.888831 1.487600
v 0.990903 -0.263440 1.487600
v 0.640987 -0.888831 2.143758
v 0.640987 -0.263440 2.143758
v 0.640987 -0.888831 1.487600
v 0.640987 -0.263440 1.487600
vt 0.625000 0.000000
vt 0.375000 0.250000
vt 0.375000 0.000000
vt 0.625000 0.250000
vt 0.375000 0.500000
vt 0.625000 0.500000
vt 0.375000 0.750000
vt 0.625000 0.750000
vt 0.375000 1.000000
vt 0.125000 0.750000
vt 0.125000 0.500000
vt 0.625000 0.000000
vt 0.375000 0.250000
vt 0.375000 0.000000
vt 0.625000 0.250000
vt 0.375000 0.500000
vt 0.625000 0.500000
vt 0.375000 0.750000
vt 0.625000 0.750000
vt 0.375000 1.000000
vt 0.125000 0.750000
vt 0.125000 0.500000
vt 0.375000 0.250000
vt 0.625000 0.000000
vt 0.375000 0.000000
vt 0.375000 0.500000
vt 0.625000 0.250000
vt 0.375000 0.750000
vt 0.625000 0.500000
vt 0.375000 1.000000
vt 0.625000 0.750000
vt 0.125000 0.750000
vt 0.125000 0.500000
vt 0.375000 0.250000
vt 0.625000 0.000000
vt 0.375000 0.000000
vt 0.375000 0.500000
vt 0.625000 0.250000
vt 0.375000 0.750000
vt 0.625000 0.500000
vt 0.375000 1.000000
vt 0.625000 0.750000
vt 0.125000 0.750000
vt 0.125000 0.500000
vt 0.625000 1.000000
vt 0.625000 1.000000
vt 0.625000 1.000000
vt 0.625000 1.000000
vn -1.0000 0.0000 0.0000
vn 0.0000 0.0000 -1.0000
vn 1.0000 0.0000 0.0000
vn 0.0000 0.0000 1.0000
vn 0.0000 -1.0000 0.0000
usemtl None
s off
f 10/15/7 11/16/7 9/17/7
f 12/18/8 15/19/8 11/16/8
f 16/20/9 13/21/9 15/19/9
f 14/22/10 9/23/10 13/21/10
f 15/19/11 9/24/11 11/25/11
f 18/26/7 19/27/7 17/28/7
f 20/29/8 23/30/8 19/27/8
f 24/31/9 21/32/9 23/30/9
f 22/33/10 17/34/10 21/32/10
f 23/30/11 17/35/11 19/36/11
f 27/37/9 26/38/9 25/39/9
f 31/40/8 28/41/8 27/37/8
f 29/42/7 32/43/7 31/40/7
f 25/44/10 30/45/10 29/42/10
f 25/46/11 31/40/11 27/47/11
f 35/48/9 34/49/9 33/50/9
f 39/51/8 36/52/8 35/48/8
f 37/53/7 40/54/7 39/51/7
f 33/55/10 38/56/10 37/53/10
f 33/57/11 39/51/11 35/58/11
f 10/15/7 12/18/7 11/16/7
f 12/18/8 16/20/8 15/19/8
f 16/20/9 14/22/9 13/21/9
f 14/22/10 10/59/10 9/23/10
f 15/19/11 13/21/11 9/24/11
f 18/26/7 20/29/7 19/27/7
f 20/29/8 24/31/8 23/30/8
f 24/31/9 22/33/9 21/32/9
f 22/33/10 18/60/10 17/34/10
f 23/30/11 21/32/11 17/35/11
f 27/37/9 28/41/9 26/38/9
f 31/40/8 32/43/8 28/41/8
f 29/42/7 30/45/7 32/43/7
f 25/44/10 26/61/10 30/45/10
f 25/46/11 29/42/11 31/40/11
f 35/48/9 36/52/9 34/49/9
f 39/51/8 40/54/8 36/52/8
f 37/53/7 38/56/7 40/54/7
f 33/55/10 34/62/10 38/56/10
f 33/57/11 37/53/11 39/51/11
