# Blender v2.80 (sub 75) OBJ File: 'car.blend'
# www.blender.org
mtllib carCollision.mtl
o Cube.002_Cube.003
v -1.142153 -1.006237 2.370246
v -1.142153 1.125542 2.370246
v -1.142153 -1.006237 -1.829303
v -1.142153 1.125542 -1.829303
v 1.142153 -1.006237 2.370246
v 1.142153 1.125542 2.370246
v 1.142153 -1.006237 -1.829303
v 1.142153 1.125542 -1.829303
v 0.380718 1.125542 2.370246
v -0.380718 1.125542 2.370246
v 1.142153 0.414949 2.370246
v 1.142153 -0.295644 2.370246
v -0.380718 1.125542 -1.829303
v 0.380718 1.125542 -1.829303
v -1.142153 -1.006237 -0.429453
v -1.142153 -1.006237 0.970396
v -1.142153 0.414949 -1.829303
v -1.142153 -0.295644 -1.829303
v 1.142153 0.414949 -1.829303
v 1.142153 -0.295644 -1.829303
v 0.380718 -1.006237 -1.829303
v -0.380718 -1.006237 -1.829303
v -1.142153 1.125542 0.970396
v -1.142153 1.125542 -0.429453
v -0.380718 -1.006237 2.370246
v 0.380718 -1.006237 2.370246
v 1.142153 -1.006237 0.970396
v 1.142153 -1.006237 -0.429453
v -1.142153 -0.295644 2.370246
v -1.142153 0.414949 2.370246
v 1.142153 1.125542 -0.429453
v 1.142153 1.125542 0.970396
v -0.380718 0.414949 -1.829303
v -0.380718 -0.295644 -1.829303
v 0.380718 0.414949 -1.829303
v 0.380718 -0.295644 -1.829303
v -0.380718 1.125542 -0.429453
v 0.380718 1.125542 -0.429453
v -0.380718 1.125542 0.970396
v 0.380718 1.125542 0.970396
v -1.142153 0.414949 -0.429453
v -1.142153 0.414949 0.970396
v -1.142153 -0.295644 -0.429453
v -1.142153 -0.295644 0.970396
v 1.142153 0.414949 -0.429453
v 1.142153 -0.295644 -0.429453
v 1.142153 0.414949 0.970396
v 1.142153 -0.295644 0.970396
v -0.380718 0.414949 2.370246
v 0.380718 0.414949 2.370246
v -0.380718 -0.295644 2.370246
v 0.380718 -0.295644 2.370246
v 0.380718 -1.006237 -0.429453
v -0.380718 -1.006237 -0.429453
v 0.380718 -1.006237 0.970396
v -0.380718 -1.006237 0.970396
vt 0.113640 0.478954
vt 0.000000 0.319303
vt 0.113640 0.319303
vt 0.318157 0.565795
vt 0.424210 0.478954
vt 0.424210 0.565795
vt 0.893947 0.000000
vt 1.000000 0.159651
vt 0.893947 0.159651
vt 0.318157 0.798257
vt 0.212105 0.957909
vt 0.212105 0.798257
vt 0.568202 0.000000
vt 0.681843 0.159651
vt 0.568202 0.159651
vt 0.530262 0.739477
vt 0.636315 0.826318
vt 0.530262 0.826318
vt 0.530262 0.913159
vt 0.636315 1.000000
vt 0.530262 1.000000
vt 0.636315 0.913159
vt 0.318157 0.913159
vt 0.424210 1.000000
vt 0.318157 1.000000
vt 0.424210 0.913159
vt 0.318157 0.826318
vt 0.424210 0.826318
vt 0.318157 0.739477
vt 0.424210 0.739477
vt 0.568202 0.319303
vt 0.681843 0.478954
vt 0.568202 0.478954
vt 0.681843 0.319303
vt 0.340921 0.319303
vt 0.454562 0.478954
vt 0.340921 0.478954
vt 0.454562 0.319303
vt 0.340921 0.159651
vt 0.454562 0.159651
vt 0.340921 0.000000
vt 0.454562 0.000000
vt 0.106052 0.798257
vt 0.000000 0.957909
vt 0.000000 0.798257
vt 0.106052 0.957909
vt 0.106052 0.478954
vt 0.000000 0.638606
vt 0.000000 0.478954
vt 0.106052 0.638606
vt 0.212105 0.478954
vt 0.212105 0.638606
vt 0.318157 0.478954
vt 0.318157 0.638606
vt 0.893947 0.319303
vt 1.000000 0.478954
vt 0.893948 0.478954
vt 1.000000 0.319303
vt 0.787895 0.478954
vt 0.787895 0.319303
vt 0.787895 0.159651
vt 0.681843 0.000000
vt 0.787895 0.000000
vt 0.530262 0.565795
vt 0.636315 0.478954
vt 0.636315 0.565795
vt 0.530262 0.478954
vt 0.530262 0.739477
vt 0.636315 0.652636
vt 0.636315 0.739477
vt 0.530262 0.652636
vt 0.424210 0.739477
vt 0.424210 0.652636
vt 0.318157 0.739477
vt 0.318157 0.652636
vt 0.113640 0.159651
vt 0.000000 0.000000
vt 0.113640 0.000000
vt 0.000000 0.159651
vt 0.340921 0.159651
vt 0.227281 0.000000
vt 0.340921 0.000000
vt 0.227281 0.159651
vt 0.340921 0.319303
vt 0.227281 0.319303
vt 0.340921 0.478954
vt 0.227281 0.478954
vt 0.000000 0.478954
vt 0.318157 0.478954
vt 1.000000 0.000000
vt 0.318157 0.957909
vt 0.636315 0.739477
vn 0.0000 -1.0000 0.0000
vn 0.0000 0.0000 1.0000
vn 1.0000 0.0000 0.0000
vn -1.0000 0.0000 0.0000
vn 0.0000 1.0000 0.0000
vn 0.0000 0.0000 -1.0000
usemtl None
s off
f 25/1/1 16/2/1 56/3/1
f 26/4/2 12/5/2 52/6/2
f 12/7/3 27/8/3 48/9/3
f 16/10/4 29/11/4 44/12/4
f 9/13/5 32/14/5 40/15/5
f 20/16/6 21/17/6 36/18/6
f 34/19/6 3/20/6 18/21/6
f 36/18/6 22/22/6 34/19/6
f 13/23/6 17/24/6 4/25/6
f 33/26/6 18/21/6 17/24/6
f 14/27/6 33/26/6 13/23/6
f 35/28/6 34/19/6 33/26/6
f 8/29/6 35/28/6 14/27/6
f 19/30/6 36/18/6 35/28/6
f 38/31/5 8/32/5 14/33/5
f 40/15/5 31/34/5 38/31/5
f 24/35/5 13/36/5 4/37/5
f 37/38/5 14/33/5 13/36/5
f 23/39/5 37/38/5 24/35/5
f 39/40/5 38/31/5 37/38/5
f 2/41/5 39/40/5 23/39/5
f 10/42/5 40/15/5 39/40/5
f 42/43/4 2/44/4 23/45/4
f 44/12/4 30/46/4 42/43/4
f 17/47/4 24/48/4 4/49/4
f 41/50/4 23/45/4 24/48/4
f 18/51/4 41/50/4 17/47/4
f 43/52/4 42/43/4 41/50/4
f 3/53/4 43/52/4 18/51/4
f 15/54/4 44/12/4 43/52/4
f 46/55/3 7/56/3 20/57/3
f 48/9/3 28/58/3 46/55/3
f 31/34/3 19/59/3 8/32/3
f 45/60/3 20/57/3 19/59/3
f 31/34/3 47/61/3 45/60/3
f 47/61/3 46/55/3 45/60/3
f 6/62/3 47/61/3 32/14/3
f 11/63/3 48/9/3 47/61/3
f 50/64/2 6/65/2 9/66/2
f 52/6/2 11/67/2 50/64/2
f 30/68/2 10/69/2 2/70/2
f 49/71/2 9/66/2 10/69/2
f 29/72/2 49/71/2 30/68/2
f 51/73/2 50/64/2 49/71/2
f 1/74/2 51/73/2 29/72/2
f 25/75/2 52/6/2 51/73/2
f 54/76/1 3/77/1 22/78/1
f 56/3/1 15/79/1 54/76/1
f 28/80/1 21/81/1 7/82/1
f 53/83/1 22/78/1 21/81/1
f 27/84/1 53/83/1 28/80/1
f 55/85/1 54/76/1 53/83/1
f 5/86/1 55/85/1 27/84/1
f 26/87/1 56/3/1 55/85/1
f 25/1/1 1/88/1 16/2/1
f 26/4/2 5/89/2 12/5/2
f 12/7/3 5/90/3 27/8/3
f 16/10/4 1/91/4 29/11/4
f 9/13/5 6/62/5 32/14/5
f 20/16/6 7/92/6 21/17/6
f 34/19/6 22/22/6 3/20/6
f 36/18/6 21/17/6 22/22/6
f 13/23/6 33/26/6 17/24/6
f 33/26/6 34/19/6 18/21/6
f 14/27/6 35/28/6 33/26/6
f 35/28/6 36/18/6 34/19/6
f 8/29/6 19/30/6 35/28/6
f 19/30/6 20/16/6 36/18/6
f 38/31/5 31/34/5 8/32/5
f 40/15/5 32/14/5 31/34/5
f 24/35/5 37/38/5 13/36/5
f 37/38/5 38/31/5 14/33/5
f 23/39/5 39/40/5 37/38/5
f 39/40/5 40/15/5 38/31/5
f 2/41/5 10/42/5 39/40/5
f 10/42/5 9/13/5 40/15/5
f 42/43/4 30/46/4 2/44/4
f 44/12/4 29/11/4 30/46/4
f 17/47/4 41/50/4 24/48/4
f 41/50/4 42/43/4 23/45/4
f 18/51/4 43/52/4 41/50/4
f 43/52/4 44/12/4 42/43/4
f 3/53/4 15/54/4 43/52/4
f 15/54/4 16/10/4 44/12/4
f 46/55/3 28/58/3 7/56/3
f 48/9/3 27/8/3 28/58/3
f 31/34/3 45/60/3 19/59/3
f 45/60/3 46/55/3 20/57/3
f 31/34/3 32/14/3 47/61/3
f 47/61/3 48/9/3 46/55/3
f 6/62/3 11/63/3 47/61/3
f 11/63/3 12/7/3 48/9/3
f 50/64/2 11/67/2 6/65/2
f 52/6/2 12/5/2 11/67/2
f 30/68/2 49/71/2 10/69/2
f 49/71/2 50/64/2 9/66/2
f 29/72/2 51/73/2 49/71/2
f 51/73/2 52/6/2 50/64/2
f 1/74/2 25/75/2 51/73/2
f 25/75/2 26/4/2 52/6/2
f 54/76/1 15/79/1 3/77/1
f 56/3/1 16/2/1 15/79/1
f 28/80/1 53/83/1 21/81/1
f 53/83/1 54/76/1 22/78/1
f 27/84/1 55/85/1 53/83/1
f 55/85/1 56/3/1 54/76/1
f 5/86/1 26/87/1 55/85/1
f 26/87/1 25/1/1 56/3/1
