# Blender v2.80 (sub 75) OBJ File: 'courseMk2.blend'
# www.blender.org
mtllib courseMk2CollisionC.mtl
o JudgmentC_Plane.003
v 220.409027 -11.947606 164.729782
v 82.866508 -11.947593 157.264297
v 220.409058 23.895191 164.729782
v 82.866508 23.895206 157.264297
v 220.922241 -11.947591 57.681023
v 83.177231 -11.947598 57.681023
v 220.922241 23.895206 57.681023
v 83.177231 23.895201 57.681023
v 220.922226 -11.947591 -45.318974
v 83.177231 -11.947598 -45.318974
v 220.922226 23.895205 -45.318974
v 83.177231 23.895199 -45.318974
v 220.897659 -11.947598 -149.084900
v 83.159836 -11.947599 -147.675156
v 220.897659 23.895201 -149.084900
v 83.159836 23.895203 -147.675156
v 177.542969 -11.947593 -291.376221
v 68.535110 -11.947588 -207.168335
v 177.542984 23.895199 -291.376221
v 68.535110 23.895203 -207.168350
v 37.455475 -11.947593 -364.897308
v 21.533461 -11.947592 -228.075623
v 37.455475 23.895199 -364.897308
v 21.533464 23.895205 -228.075638
v -101.161720 -11.947599 -348.883698
v -48.602604 -11.947592 -221.560333
v -101.161720 23.895197 -348.883698
v -48.602612 23.895206 -221.560333
v -210.006760 -11.947588 -226.580109
v -78.012360 -11.947598 -187.195221
v -210.006760 23.895206 -226.580109
v -78.012360 23.895199 -187.195221
v -220.922241 -11.947591 -102.897141
v -83.177231 -11.947598 -102.897102
v -220.922241 23.895206 -102.897148
v -83.177231 23.895201 -102.897102
v -220.922241 -11.947591 0.103476
v -83.177231 -11.947598 0.103513
v -220.922241 23.895206 0.103473
v -83.177231 23.895201 0.103510
v -220.922241 -11.947598 103.103958
v -83.177238 -11.947588 103.103996
v -220.922241 23.895199 103.103958
v -83.177238 23.895205 103.103996
v -211.200638 -11.947601 225.592850
v -78.511467 -11.947586 188.616226
v -211.200653 23.895191 225.592850
v -78.511475 23.895210 188.616211
v -104.096169 -11.947601 350.086761
v -50.309086 -11.947582 223.277313
v -104.096169 23.895191 350.086761
v -50.309090 23.895206 223.277313
v 35.136402 -11.947586 366.480560
v 19.201477 -11.947595 229.660370
v 35.136402 23.895203 366.480560
v 19.201477 23.895201 229.660370
v 174.841446 -11.947591 295.115326
v 67.675415 -11.947598 208.575577
v 174.841446 23.895203 295.115326
v 67.675415 23.895201 208.575577
vt 0.000000 0.000000
vt 1.000000 0.000000
vt 0.000000 0.000000
vt 1.000000 0.000000
vt 0.000000 0.000000
vt 0.000000 0.000000
vt 1.000000 0.000000
vt 0.000000 0.000000
vt 0.000000 0.000000
vt 1.000000 0.000000
vt 0.000000 0.000000
vt 0.000000 0.000000
vt 0.000000 0.000000
vt 1.000000 0.000000
vt 0.000000 0.000000
vt 0.000000 0.000000
vt 1.000000 0.000000
vt 0.000000 0.000000
vt 1.000000 0.000000
vt 0.000000 0.000000
vt 0.000000 0.000000
vt 0.000000 0.000000
vt 1.000000 0.000000
vt 0.000000 0.000000
vt 1.000000 0.000000
vt 0.000000 0.000000
vt 0.000000 0.000000
vt 1.000000 0.000000
vt 0.000000 0.000000
vt 0.000000 0.000000
vt 1.000000 0.000000
vt 0.000000 0.000000
vt 0.000000 0.000000
vt 0.000000 0.000000
vt 1.000000 0.000000
vt 0.000000 0.000000
vt 0.000000 0.000000
vt 1.000000 0.000000
vt 0.000000 0.000000
vt 1.000000 0.000000
vt 0.000000 0.000000
vt 0.000000 0.000000
vt 1.000000 0.000000
vt 0.000000 0.000000
vt 0.000000 0.000000
vt 1.000000 0.000000
vt 1.000000 0.000000
vt 1.000000 0.000000
vt 1.000000 0.000000
vt 1.000000 0.000000
vt 1.000000 0.000000
vt 1.000000 0.000000
vt 1.000000 0.000000
vt 1.000000 0.000000
vt 1.000000 0.000000
vt 1.000000 0.000000
vt 1.000000 0.000000
vt 1.000000 0.000000
vt 1.000000 0.000000
vt 1.000000 0.000000
vn 0.0542 -0.0000 -0.9985
vn 0.0000 0.0000 -1.0000
vn -0.0102 0.0000 -0.9999
vn -0.6113 0.0000 -0.7914
vn -0.9933 0.0000 -0.1156
vn -0.9243 0.0000 0.3816
vn -0.2859 0.0000 0.9583
vn -0.0000 0.0000 1.0000
vn 0.2684 0.0000 0.9633
vn 0.9206 0.0000 0.3905
vn 0.9933 0.0000 -0.1157
vn 0.6283 0.0000 -0.7780
usemtl None
s off
f 1/1/1 4/2/1 3/3/1
f 6/4/2 7/5/2 5/6/2
f 10/7/2 11/8/2 9/9/2
f 14/10/3 15/11/3 13/12/3
f 17/13/4 20/14/4 19/15/4
f 21/16/5 24/17/5 23/18/5
f 26/19/6 27/20/6 25/21/6
f 29/22/7 32/23/7 31/24/7
f 34/25/8 35/26/8 33/27/8
f 38/28/8 39/29/8 37/30/8
f 42/31/8 43/32/8 41/33/8
f 45/34/9 48/35/9 47/36/9
f 49/37/10 52/38/10 51/39/10
f 54/40/11 55/41/11 53/42/11
f 58/43/12 59/44/12 57/45/12
f 1/1/1 2/46/1 4/2/1
f 6/4/2 8/47/2 7/5/2
f 10/7/2 12/48/2 11/8/2
f 14/10/3 16/49/3 15/11/3
f 17/13/4 18/50/4 20/14/4
f 21/16/5 22/51/5 24/17/5
f 26/19/6 28/52/6 27/20/6
f 29/22/7 30/53/7 32/23/7
f 34/25/8 36/54/8 35/26/8
f 38/28/8 40/55/8 39/29/8
f 42/31/8 44/56/8 43/32/8
f 45/34/9 46/57/9 48/35/9
f 49/37/10 50/58/10 52/38/10
f 54/40/11 56/59/11 55/41/11
f 58/43/12 60/60/12 59/44/12
