# Blender v2.80 (sub 75) OBJ File: 'course.blend'
# www.blender.org
mtllib courseCollisionA.mtl
o JudgmentA_Plane.011
v 184.466644 -11.947590 91.827141
v 119.632820 -11.947596 91.827141
v 184.466644 23.895203 91.827141
v 119.632820 23.895203 91.827141
v 184.466644 -11.947590 -11.172874
v 119.632820 -11.947596 -11.172859
v 184.466644 23.895203 -11.172874
v 119.632820 23.895203 -11.172859
v 184.466644 -11.947590 -114.172867
v 119.632820 -11.947596 -114.172867
v 184.466644 23.895203 -114.172867
v 119.632820 23.895203 -114.172867
v 170.648239 -11.947595 -229.643707
v 110.128899 -11.947598 -206.387817
v 170.648239 23.895197 -229.643707
v 110.128899 23.895201 -206.387817
v 73.865242 -11.947591 -320.132599
v 54.114460 -11.947595 -258.380432
v 73.865242 23.895203 -320.132599
v 54.114460 23.895199 -258.380432
v -46.380741 -11.947593 -326.781342
v -35.285629 -11.947595 -262.903961
v -46.380741 23.895203 -326.781342
v -35.285633 23.895199 -262.903961
v -157.190979 -11.947595 -256.538055
v -102.070641 -11.947591 -222.403412
v -157.190979 23.895197 -256.538055
v -102.070648 23.895203 -222.403412
v -184.466644 -11.947592 -137.043472
v -119.632820 -11.947595 -137.043350
v -184.466644 23.895199 -137.043472
v -119.632820 23.895199 -137.043350
v -184.466644 -11.947590 -34.042919
v -119.632820 -11.947596 -34.042904
v -184.466644 23.895203 -34.042927
v -119.632820 23.895203 -34.042908
v -184.466644 -11.947590 68.957695
v -119.632820 -11.947596 68.957726
v -184.466644 23.895203 68.957695
v -119.632820 23.895203 68.957726
v -183.279144 -11.947587 175.394226
v -118.710297 -11.947595 169.538696
v -183.279144 23.895203 175.394226
v -118.710297 23.895195 169.538696
v -128.826416 -11.947593 292.622406
v -86.694687 -11.947595 243.344177
v -128.826416 23.895203 292.622406
v -86.694687 23.895201 243.344177
v -8.236151 -11.947591 332.116669
v -7.170377 -11.947596 267.291626
v -8.236150 23.895206 332.116669
v -7.170376 23.895203 267.291626
v 112.092781 -11.947596 303.038177
v 76.965553 -11.947591 248.545044
v 112.092781 23.895199 303.038177
v 76.965553 23.895205 248.545044
v 180.844894 -11.947595 191.736481
v 116.920235 -11.947593 180.916870
v 180.844894 23.895201 191.736481
v 116.920235 23.895203 180.916870
vt 0.000000 0.000000
vt 1.000000 0.000000
vt 0.000000 0.000000
vt 0.000000 0.000000
vt 1.000000 0.000000
vt 0.000000 0.000000
vt 0.000000 0.000000
vt 1.000000 0.000000
vt 0.000000 0.000000
vt 1.000000 0.000000
vt 0.000000 0.000000
vt 0.000000 0.000000
vt 1.000000 0.000000
vt 0.000000 0.000000
vt 0.000000 0.000000
vt 0.000000 0.000000
vt 1.000000 0.000000
vt 0.000000 0.000000
vt 1.000000 0.000000
vt 0.000000 0.000000
vt 0.000000 0.000000
vt 1.000000 0.000000
vt 0.000000 0.000000
vt 0.000000 0.000000
vt 0.000000 0.000000
vt 1.000000 0.000000
vt 0.000000 0.000000
vt 1.000000 0.000000
vt 0.000000 0.000000
vt 0.000000 0.000000
vt 1.000000 0.000000
vt 0.000000 0.000000
vt 0.000000 0.000000
vt 0.000000 0.000000
vt 1.000000 0.000000
vt 0.000000 0.000000
vt 1.000000 0.000000
vt 0.000000 0.000000
vt 0.000000 0.000000
vt 0.000000 0.000000
vt 1.000000 0.000000
vt 0.000000 0.000000
vt 1.000000 0.000000
vt 0.000000 0.000000
vt 0.000000 0.000000
vt 1.000000 0.000000
vt 1.000000 0.000000
vt 1.000000 0.000000
vt 1.000000 0.000000
vt 1.000000 0.000000
vt 1.000000 0.000000
vt 1.000000 0.000000
vt 1.000000 0.000000
vt 1.000000 0.000000
vt 1.000000 0.000000
vt 1.000000 0.000000
vt 1.000000 0.000000
vt 1.000000 0.000000
vt 1.000000 0.000000
vt 1.000000 0.000000
vn 0.0000 0.0000 -1.0000
vn -0.3587 0.0000 -0.9335
vn -0.9525 0.0000 -0.3046
vn -0.9852 0.0000 0.1711
vn -0.5265 0.0000 0.8502
vn -0.0000 0.0000 1.0000
vn 0.0903 0.0000 0.9959
vn 0.7601 0.0000 0.6498
vn 0.9999 -0.0000 0.0164
vn 0.8405 0.0000 -0.5418
vn 0.1669 0.0000 -0.9860
usemtl None
s off
f 1/1/1 4/2/1 3/3/1
f 5/4/1 8/5/1 7/6/1
f 9/7/1 12/8/1 11/9/1
f 14/10/2 15/11/2 13/12/2
f 18/13/3 19/14/3 17/15/3
f 21/16/4 24/17/4 23/18/4
f 26/19/5 27/20/5 25/21/5
f 30/22/6 31/23/6 29/24/6
f 33/25/6 36/26/6 35/27/6
f 38/28/6 39/29/6 37/30/6
f 42/31/7 43/32/7 41/33/7
f 45/34/8 48/35/8 47/36/8
f 50/37/9 51/38/9 49/39/9
f 53/40/10 56/41/10 55/42/10
f 58/43/11 59/44/11 57/45/11
f 1/1/1 2/46/1 4/2/1
f 5/4/1 6/47/1 8/5/1
f 9/7/1 10/48/1 12/8/1
f 14/10/2 16/49/2 15/11/2
f 18/13/3 20/50/3 19/14/3
f 21/16/4 22/51/4 24/17/4
f 26/19/5 28/52/5 27/20/5
f 30/22/6 32/53/6 31/23/6
f 33/25/6 34/54/6 36/26/6
f 38/28/6 40/55/6 39/29/6
f 42/31/7 44/56/7 43/32/7
f 45/34/8 46/57/8 48/35/8
f 50/37/9 52/58/9 51/38/9
f 53/40/10 54/59/10 56/41/10
f 58/43/11 60/60/11 59/44/11
