# Blender v2.80 (sub 75) OBJ File: 'course.blend'
# www.blender.org
mtllib courseCollision.mtl
o Judgement_Cube.009
v 121.795265 1.720172 152.986588
v 121.798378 71.448257 152.985626
v 170.332474 1.720166 154.311783
v 121.664474 1.720173 -167.213272
v 121.425041 71.448273 -170.240387
v 170.340210 71.448257 154.310776
v 170.327377 1.720164 -156.306503
v 166.636337 1.720165 -192.271133
v 169.684265 71.448273 -174.875687
v 109.733749 1.720171 -214.336014
v 106.328979 71.448265 -221.622437
v 156.599716 1.720164 -227.378418
v 157.749435 71.448257 -224.477234
v 139.147385 1.720165 -258.786530
v 85.632149 1.720171 -245.491455
v 141.083588 71.448257 -256.124176
v 84.134644 71.448280 -245.851944
v 116.118111 71.448273 -282.604218
v 106.239342 1.720165 -290.345581
v 52.871742 71.448280 -261.830200
v 42.366825 1.720174 -264.570679
v 83.755234 71.448273 -301.773010
v 65.501724 1.720164 -308.133362
v 50.255352 71.448273 -311.814484
v -0.940110 71.448280 -268.301300
v -10.415062 1.720175 -267.922455
v 18.123297 1.720163 -316.404755
v 1.516108 71.448265 -317.037903
v -35.115166 1.720163 -314.426941
v -55.716633 1.720174 -260.827148
v -56.093590 71.448280 -260.982971
v -52.086048 71.448257 -311.559387
v -70.261711 1.720160 -306.665436
v -85.541267 71.448273 -300.808777
v -89.466866 1.720176 -241.902206
v -86.745529 71.448273 -243.790894
v -111.657814 1.720163 -286.633881
v -115.089668 71.448257 -283.420868
v -107.636520 71.448273 -218.930466
v -142.230118 1.720161 -254.475815
v -107.066093 1.720175 -218.750809
v -140.337341 71.448265 -257.162537
v -158.446609 1.720163 -222.607742
v -117.930649 1.720175 -189.360107
v -157.334274 71.448257 -225.519287
v -121.463684 71.448273 -169.369049
v -121.777298 1.720175 -154.146622
v -121.746292 71.448280 164.739105
v -121.748573 1.720175 163.092499
v -170.209457 71.448265 -172.985214
v -170.264633 1.720163 -170.486145
v -169.936432 1.720160 171.075348
v -170.219711 71.448265 167.187271
v -114.826851 1.720176 199.887192
v -109.531342 71.448280 215.453522
v -160.263168 1.720161 217.329254
v -161.209152 71.448273 214.403503
v -102.379692 1.720175 227.148026
v -145.284363 1.720161 249.775604
v -142.618683 71.448265 254.809052
v -90.152748 71.448273 240.747345
v -121.966339 1.720160 277.671417
v -82.110710 1.720177 247.328445
v -110.305946 71.448265 286.969055
v -63.174858 71.448273 258.296204
v -91.965927 1.720161 297.904266
v -51.422974 1.720176 262.239105
v -77.104797 71.448250 304.398376
v -58.800766 1.720160 309.945312
v -10.942516 71.448273 268.158447
v 5.254100 1.720175 268.339691
v -28.915167 71.448265 315.554199
v -10.590193 1.720160 316.754730
v 41.498592 71.448288 264.392242
v 40.438808 1.720162 313.618286
v 45.799904 1.720175 263.105927
v 42.215950 71.448273 313.996338
v 74.679649 1.720177 252.402466
v 71.164803 71.448273 253.925781
v 85.014656 1.720160 301.766785
v 98.832954 71.448257 294.805450
v 93.638062 71.448280 237.737915
v 121.877571 1.720160 277.608612
v 97.371742 1.720178 233.365768
v 133.550323 71.448257 265.806488
v 109.627289 1.720176 213.448456
v 114.337830 71.448273 203.896957
v 149.963287 1.720161 243.030960
v 153.147476 71.448265 235.291306
v 119.787064 1.720176 180.616730
v 164.955872 71.448265 200.550339
v 122.522675 71.448265 141.554794
v 168.060928 1.720160 186.367432
v 170.347046 1.720166 141.578659
v 121.804817 1.720170 141.542160
v 171.166687 71.448250 141.593628
vt 0.708333 0.750000
vt 0.625000 0.750000
vt 0.625000 0.500000
vt 0.708333 0.653320
vt 0.625000 0.750000
vt 0.625000 0.500000
vt 0.625000 0.500000
vt 0.708333 0.604884
vt 0.625000 0.750000
vt 0.708333 0.639205
vt 0.625000 0.750000
vt 0.625000 0.500000
vt 0.708333 0.655723
vt 0.625000 0.750000
vt 0.625000 0.500000
vt 0.625000 0.500000
vt 0.708333 0.640847
vt 0.625000 0.750000
vt 0.625000 0.500000
vt 0.708333 0.633069
vt 0.625000 0.750000
vt 0.625000 0.500000
vt 0.708333 0.638849
vt 0.625000 0.750000
vt 0.708333 0.500000
vt 0.625000 0.750000
vt 0.625000 0.500000
vt 0.625000 0.500000
vt 0.708333 0.645734
vt 0.625000 0.750000
vt 0.625000 0.500000
vt 0.708333 0.636294
vt 0.625000 0.750000
vt 0.625000 0.500000
vt 0.708333 0.630885
vt 0.625000 0.750000
vt 0.708333 0.618646
vt 0.625000 0.750000
vt 0.625000 0.500000
vt 0.708333 0.615597
vt 0.625000 0.750000
vt 0.625000 0.500000
vt 0.708333 0.627171
vt 0.625000 0.750000
vt 0.625000 0.500000
vt 0.625000 0.500000
vt 0.708333 0.648516
vt 0.625000 0.750000
vt 0.708333 0.500000
vt 0.625000 0.625000
vt 0.708333 0.500000
vt 0.708333 0.750000
vt 0.625000 0.612604
vt 0.625000 0.750000
vt 0.708333 0.500000
vt 0.708333 0.750000
vt 0.708333 0.500000
vt 0.708333 0.750000
vt 0.625000 0.603683
vt 0.708333 0.750000
vt 0.625000 0.500000
vt 0.708333 0.500000
vt 0.708333 0.500000
vt 0.708333 0.750000
vt 0.625000 0.625767
vt 0.625000 0.600269
vt 0.708333 0.500000
vt 0.708333 0.750000
vt 0.708333 0.500000
vt 0.708333 0.750000
vt 0.625000 0.616342
vt 0.708333 0.500000
vt 0.708333 0.750000
vt 0.625000 0.643074
vt 0.708333 0.500000
vt 0.708333 0.750000
vt 0.625000 0.616794
vt 0.625000 0.623475
vt 0.708333 0.500000
vt 0.708333 0.750000
vt 0.625000 0.591981
vt 0.708333 0.500000
vt 0.708333 0.750000
vt 0.625000 0.642051
vt 0.708333 0.500000
vt 0.708333 0.750000
vt 0.708333 0.750000
vt 0.625000 0.750000
vt 0.708333 0.500000
vt 0.708333 0.750000
vt 0.625000 0.500000
vt 0.708333 0.750000
vt 0.625000 0.750000
vt 0.708333 0.500000
vt 0.708333 0.750000
vt 0.625000 0.577498
vt 0.625000 0.595464
vt 0.708333 0.500000
vt 0.708333 0.750000
vt 0.625000 0.588788
vt 0.708333 0.500000
vt 0.708333 0.750000
vt 0.625000 0.587906
vt 0.708333 0.500000
vt 0.708333 0.750000
vt 0.708333 0.500000
vt 0.708333 0.750000
vt 0.625000 0.616773
vt 0.708333 0.500000
vt 0.708333 0.750000
vt 0.625000 0.619649
vt 0.708333 0.500000
vt 0.708333 0.750000
vt 0.625000 0.580709
vt 0.625000 0.621471
vt 0.708333 0.500000
vt 0.708333 0.750000
vt 0.708333 0.750000
vt 0.625000 0.500000
vt 0.708333 0.500000
vt 0.708333 0.750000
vt 0.625000 0.500000
vt 0.708333 0.500000
vt 0.625000 0.500000
vt 0.625000 0.750000
vt 0.625000 0.500000
vt 0.708333 0.500000
vt 0.625000 0.750000
vt 0.625000 0.750000
vt 0.875000 0.500000
vt 0.875000 0.570265
vt 0.875000 0.750000
vt 0.625000 0.375000
vt 0.875000 0.500000
vt 0.875000 0.611316
vt 0.875000 0.750000
vt 0.625000 0.632165
vt 0.875000 0.633151
vt 0.875000 0.500000
vt 0.875000 0.750000
vt 0.875000 0.500000
vt 0.875000 0.608574
vt 0.875000 0.750000
vt 0.875000 0.500000
vt 0.875000 0.640862
vt 0.875000 0.750000
vt 0.875000 0.660351
vt 0.875000 0.500000
vt 0.875000 0.750000
vt 0.875000 0.500000
vt 0.875000 0.639427
vt 0.875000 0.750000
vt 0.625000 0.640873
vt 0.625000 0.609771
vt 0.625000 0.750000
vt 0.625000 0.500000
vt 0.625000 0.750000
vt 0.625000 0.500000
vt 0.625000 0.646381
vt 0.875000 0.500000
vt 0.875000 0.576998
vt 0.875000 0.750000
vt 0.625000 0.623319
vt 0.875000 0.500000
vt 0.875000 0.595713
vt 0.875000 0.750000
vt 0.625000 0.750000
vt 0.625000 0.500000
vt 0.625000 0.592246
vt 0.875000 0.500000
vt 0.875000 0.611238
vt 0.875000 0.750000
vt 0.875000 0.632594
vt 0.875000 0.500000
vt 0.875000 0.750000
vt 0.875000 0.500000
vt 0.875000 0.608294
vt 0.875000 0.750000
vt 0.625000 0.750000
vt 0.625000 0.500000
vt 0.625000 0.609420
vt 0.625000 0.750000
vt 0.625000 0.500000
vt 0.625000 0.618618
vt 0.875000 0.500000
vt 0.875000 0.579921
vt 0.875000 0.750000
vt 0.625000 0.667543
vt 0.625000 0.600448
vt 0.875000 0.613161
vt 0.875000 0.500000
vt 0.875000 0.750000
vt 0.625000 0.750039
vt 0.625000 0.750000
vt 0.625000 0.500000
vt 0.875000 0.500000
vt 0.875000 0.750000
vt 0.875000 0.750000
vt 0.875000 0.500000
vt 0.875000 0.617388
vt 0.625000 0.500000
vt 0.625000 0.750000
vt 0.875000 0.750000
vt 0.875000 0.500000
vt 0.875000 0.500000
vt 0.875000 0.750000
vt 0.875000 0.500000
vt 0.875000 0.500000
vt 0.875000 0.750000
vt 0.875000 0.500000
vt 0.875000 0.500000
vt 0.625000 0.653463
vt 0.625000 0.750000
vt 0.625000 0.500000
vt 0.875000 0.638280
vt 0.875000 0.500000
vt 0.875000 0.750000
vt 0.625000 0.594276
vt 0.625000 0.750000
vt 0.625000 0.500000
vt 0.625000 0.750000
vt 0.875000 0.631168
vt 0.875000 0.500000
vt 0.875000 0.750000
vt 0.625000 0.631089
vt 0.625000 0.750000
vt 0.625000 0.500000
vt 0.625000 0.631412
vt 0.875000 0.750000
vt 0.875000 0.500000
vt 0.875000 0.617605
vt 0.875000 0.639205
vt 0.875000 0.500000
vt 0.875000 0.750000
vt 0.625000 0.750000
vt 0.625000 0.500000
vt 0.875000 0.655723
vt 0.875000 0.500000
vt 0.875000 0.750000
vt 0.875000 0.750000
vt 0.875000 0.500000
vt 0.875000 0.750000
vt 0.875000 0.750000
vt 0.875000 0.500000
vt 0.875000 0.500000
vt 0.625000 0.750000
vt 0.625000 0.500000
vt 0.875000 0.750000
vt 0.875000 0.500000
vt 0.875000 0.500000
vt 0.875000 0.750000
vt 0.875000 0.500000
vt 0.875000 0.500000
vt 0.625000 0.625510
vt 0.875000 0.500000
vt 0.875000 0.500000
vt 0.875000 0.750000
vt 0.875000 0.750000
vt 0.875000 0.644034
vt 0.625000 0.500000
vt 0.625000 0.750000
vt 0.875000 0.750000
vt 0.875000 0.500000
vt 0.875000 0.750000
vt 0.625000 0.750000
vt 0.625000 0.500000
vt 0.625000 0.750000
vt 0.625000 0.500000
vt 0.875000 0.645734
vt 0.875000 0.500000
vt 0.875000 0.750000
vt 0.875000 0.636294
vt 0.875000 0.500000
vt 0.875000 0.750000
vt 0.875000 0.636731
vt 0.875000 0.500000
vt 0.875000 0.750000
vt 0.875000 0.750000
vt 0.875000 0.500000
vt 0.875000 0.617042
vt 0.875000 0.750000
vt 0.875000 0.500000
vt 0.875000 0.619271
vt 0.875000 0.615597
vt 0.875000 0.500000
vt 0.875000 0.750000
vt 0.625000 0.500000
vt 0.625000 0.750000
vt 0.625000 0.750000
vt 0.625000 0.500000
vt 0.875000 0.627171
vt 0.875000 0.500000
vt 0.875000 0.750000
vt 0.875000 0.750000
vt 0.875000 0.500000
vt 0.875000 0.599223
vt 0.875000 0.648516
vt 0.875000 0.500000
vt 0.875000 0.750000
vt 0.875000 0.750000
vt 0.875000 0.500000
vt 0.875000 0.500000
vt 0.625000 0.599281
vt 0.625000 0.500000
vt 0.875000 0.750000
vt 0.875000 0.500000
vt 0.875000 0.750000
vt 0.875000 0.750000
vt 0.875000 0.750000
vt 0.625000 0.500000
vt 0.875000 0.500000
vt 0.875000 0.750000
vt 0.875000 0.750000
vt 0.875000 0.750000
vt 0.875000 0.500000
vt 0.875000 0.750000
vn 0.0000 1.0000 0.0000
vn -1.0000 0.0001 0.0000
vn 1.0000 -0.0000 -0.0004
vn -0.4001 0.0212 0.9162
vn 0.4034 -0.0248 -0.9147
vn -0.2871 -0.0122 0.9578
vn -0.1720 0.0144 0.9850
vn 0.2156 0.0123 0.9764
vn 0.3059 -0.0129 0.9520
vn 0.4355 0.0198 0.9000
vn -0.7961 -0.0081 -0.6052
vn -0.9379 -0.0086 -0.3467
vn -0.9628 0.0282 -0.2686
vn -1.0000 0.0043 -0.0008
vn -0.9094 -0.0236 0.4152
vn 0.7671 0.0170 -0.6413
vn -0.7055 -0.0145 0.7086
vn 0.5591 0.0170 -0.8290
vn -0.5452 0.0162 0.8381
vn -0.4369 -0.0228 0.8992
vn 0.3412 0.0148 -0.9399
vn 0.2255 -0.0183 -0.9741
vn 0.1398 0.0197 -0.9900
vn -0.1855 0.0243 0.9823
vn -0.1070 -0.0223 0.9940
vn 0.0716 0.0192 0.9972
vn 0.1280 -0.0104 0.9917
vn -0.5480 0.0251 -0.8361
vn 0.6426 -0.0136 0.7660
vn 0.9550 -0.0240 0.2955
vn -0.9942 -0.0230 -0.1047
vn 0.9986 -0.0103 0.0516
vn 1.0000 0.0034 -0.0012
vn -1.0000 -0.0087 0.0020
vn -0.9946 0.0180 0.1021
vn 0.9593 0.0174 -0.2818
vn -0.8848 -0.0048 0.4660
vn -0.7276 -0.0060 0.6860
vn -0.9721 -0.0159 0.2339
vn 0.7907 -0.0253 -0.6117
vn 0.7373 0.0123 -0.6754
vn -0.5095 -0.0233 0.8602
vn 0.4551 0.0052 -0.8904
vn -0.1547 -0.0030 -0.9880
vn -0.1065 -0.0163 0.9942
vn 0.1194 0.0210 -0.9926
vn 0.0634 -0.0140 -0.9979
vn 0.0371 0.0179 0.9992
vn 0.1017 -0.0162 0.9947
vn -0.4892 -0.0046 -0.8722
vn 0.5071 -0.0148 0.8618
vn 0.7208 0.0071 0.6931
vn 0.8809 -0.0057 0.4732
vn -0.7655 0.0125 -0.6433
vn 0.9712 -0.0056 0.2380
vn 0.9823 -0.0065 -0.1874
vn -0.9939 -0.0192 -0.1086
vn -1.0000 0.0000 0.0001
vn 1.0000 -0.0008 0.0000
vn 1.0000 0.0040 -0.0010
vn -0.9720 0.0216 0.2341
vn 0.9084 -0.0046 -0.4180
vn 0.3327 0.0031 0.9430
vn -0.7936 0.0206 0.6080
vn 0.7052 -0.0235 -0.7086
vn 0.4647 -0.0166 -0.8853
vn -0.0219 -0.0230 -0.9995
vn -0.0613 0.0070 -0.9981
vn -0.2569 0.0118 -0.9664
vn -0.3209 -0.0309 -0.9466
vn 0.8530 0.0138 0.5218
vn 0.5844 0.0117 0.8114
vn -0.6409 -0.0226 -0.7673
vn -0.7760 0.0232 -0.6303
vn -0.8412 -0.0216 -0.5402
vn -0.9468 0.0075 -0.3218
vn 0.9909 0.0340 0.1301
vn -0.9986 0.0117 -0.0510
vn 0.9694 -0.0073 -0.2454
vn -0.8741 0.0057 0.4857
vn -0.6920 0.0179 0.7216
vn -0.9615 0.0044 0.2749
vn -0.1315 0.0125 -0.9912
vn -0.4891 -0.0045 -0.8722
vn 0.7247 0.0039 0.6890
vn 0.8912 0.0047 0.4535
vn 0.9752 0.0072 0.2211
vn 0.9788 0.0047 -0.2047
vn -0.9828 -0.0043 0.1849
vn 0.9079 -0.0053 -0.4191
vn 0.3475 -0.0030 0.9377
vn 0.8516 0.0127 0.5240
vn -0.9524 0.0195 -0.3042
usemtl Road.010
s off
f 7/1/1 4/2/1 1/3/1
f 14/4/1 15/5/1 10/6/1
f 21/7/1 27/8/1 26/9/1
f 29/10/1 30/11/1 26/12/1
f 37/13/1 35/14/1 30/15/1
f 35/16/1 40/17/1 41/18/1
f 41/19/1 43/20/1 44/21/1
f 44/22/1 51/23/1 47/24/1
f 51/25/1 49/26/1 47/27/1
f 58/28/1 62/29/1 63/30/1
f 63/31/1 66/32/1 67/33/1
f 67/34/1 73/35/1 71/36/1
f 75/37/1 76/38/1 71/39/1
f 80/40/1 78/41/1 76/42/1
f 83/43/1 84/44/1 78/45/1
f 84/46/1 88/47/1 86/48/1
f 3/49/1 7/1/1 1/50/1
f 7/51/1 8/52/1 4/53/1
f 10/54/1 8/55/1 12/56/1
f 12/57/1 14/58/1 10/59/1
f 23/60/1 15/61/1 19/62/1
f 14/63/1 19/64/1 15/65/1
f 21/66/1 23/67/1 27/68/1
f 27/69/1 29/70/1 26/71/1
f 29/72/1 33/73/1 30/74/1
f 33/75/1 37/76/1 30/77/1
f 35/78/1 37/79/1 40/80/1
f 41/81/1 40/82/1 43/83/1
f 44/84/1 43/85/1 51/86/1
f 51/25/1 52/87/1 49/26/1
f 54/88/1 52/89/1 56/90/1
f 54/91/1 59/92/1 58/93/1
f 59/94/1 62/95/1 58/96/1
f 63/97/1 62/98/1 66/99/1
f 67/100/1 66/101/1 69/102/1
f 67/103/1 69/104/1 73/105/1
f 73/106/1 75/107/1 71/108/1
f 75/109/1 80/110/1 76/111/1
f 80/112/1 83/113/1 78/114/1
f 84/115/1 83/116/1 88/117/1
f 93/118/1 86/119/1 88/120/1
f 94/121/1 90/122/1 93/123/1
f 10/54/1 4/124/1 8/55/1
f 23/60/1 21/125/1 15/61/1
f 54/88/1 49/126/1 52/89/1
f 54/91/1 56/127/1 59/92/1
f 93/118/1 90/128/1 86/119/1
f 94/121/1 95/129/1 90/122/1
usemtl LineEdge.008
f 3/130/2 6/131/2 7/132/2
f 4/2/3 2/133/3 1/3/3
f 19/134/4 22/135/4 23/136/4
f 21/125/5 20/137/5 15/61/5
f 23/138/6 22/139/6 24/140/6
f 23/141/7 24/142/7 27/143/7
f 29/144/8 32/145/8 33/146/8
f 33/147/9 32/148/9 34/149/9
f 33/150/10 34/151/10 37/152/10
f 41/18/11 39/153/11 35/16/11
f 44/21/12 39/154/12 41/19/12
f 44/84/13 46/155/13 39/156/13
f 47/27/14 48/157/14 46/158/14
f 58/93/15 55/159/15 54/91/15
f 59/160/16 60/161/16 62/162/16
f 63/30/17 61/163/17 58/28/17
f 62/164/18 64/165/18 66/166/18
f 63/97/19 65/167/19 61/168/19
f 67/33/20 65/169/20 63/31/20
f 66/170/21 68/171/21 69/172/21
f 69/173/22 68/174/22 72/175/22
f 69/176/23 72/177/23 73/178/23
f 67/103/24 70/179/24 65/180/24
f 71/36/25 70/181/25 67/34/25
f 71/108/26 74/182/26 70/183/26
f 76/38/27 74/184/27 71/39/27
f 80/185/28 81/186/28 83/187/28
f 84/44/29 82/188/29 78/45/29
f 90/128/30 87/189/30 86/119/30
f 93/190/31 91/191/31 96/192/31
f 95/129/32 92/193/32 90/122/32
f 4/2/33 5/194/33 2/195/33
f 7/132/34 6/196/34 9/197/34
f 8/198/35 7/199/35 9/200/35
f 5/201/36 10/54/36 11/202/36
f 16/203/37 12/204/37 13/205/37
f 18/206/38 14/207/38 16/208/38
f 13/209/39 8/210/39 9/211/39
f 10/6/40 15/5/40 11/212/40
f 15/65/41 17/213/41 11/214/41
f 19/215/42 18/216/42 22/217/42
f 15/218/43 20/219/43 17/220/43
f 31/221/44 26/12/44 30/11/44
f 27/222/45 24/223/45 28/224/45
f 21/225/46 25/226/46 20/227/46
f 21/7/47 26/9/47 25/228/47
f 29/229/48 27/230/48 28/231/48
f 29/232/49 28/233/49 32/234/49
f 30/15/50 36/235/50 31/236/50
f 37/237/51 34/238/51 38/239/51
f 40/240/52 38/241/52 42/242/52
f 45/243/53 40/244/53 42/245/53
f 35/78/54 39/246/54 36/247/54
f 50/248/55 43/249/55 45/250/55
f 57/251/56 52/252/56 53/253/56
f 44/22/57 47/24/57 46/254/57
f 47/27/58 49/26/58 48/157/58
f 51/255/59 50/256/59 53/257/59
f 52/258/60 51/255/60 53/259/60
f 48/260/61 54/88/61 55/261/61
f 59/262/62 57/263/62 60/264/62
f 76/42/63 79/265/63 74/266/63
f 58/96/64 61/267/64 55/268/64
f 62/269/65 60/270/65 64/271/65
f 66/272/66 64/273/66 68/274/66
f 73/275/67 72/276/67 77/277/67
f 75/278/68 73/279/68 77/280/68
f 80/281/69 75/282/69 77/283/69
f 80/284/70 77/285/70 81/286/70
f 82/287/71 86/48/71 87/288/71
f 78/114/72 82/289/72 79/290/72
f 83/291/73 81/292/73 85/293/73
f 88/294/74 83/295/74 85/296/74
f 88/297/75 85/298/75 89/299/75
f 91/300/76 88/301/76 89/302/76
f 90/303/77 92/193/77 87/304/77
f 94/305/78 93/306/78 96/192/78
f 5/201/79 4/124/79 10/54/79
f 16/203/80 14/307/80 12/204/80
f 18/206/81 19/308/81 14/207/81
f 13/209/82 12/309/82 8/210/82
f 31/221/83 25/310/83 26/12/83
f 30/15/84 35/14/84 36/235/84
f 40/240/85 37/311/85 38/241/85
f 45/243/86 43/312/86 40/244/86
f 50/248/87 51/313/87 43/249/87
f 57/251/88 56/314/88 52/252/88
f 48/260/89 49/126/89 54/88/89
f 59/262/90 56/315/90 57/263/90
f 76/42/91 78/41/91 79/265/91
f 82/287/92 84/46/92 86/48/92
f 91/300/93 93/316/93 88/301/93
