# Blender v2.80 (sub 75) OBJ File: 'courseMk2.blend'
# www.blender.org
mtllib courseMk2CollisionB.mtl
o JudgmentB_Plane.010
v 220.807739 -11.947591 125.758339
v 83.291748 -11.947595 125.758339
v 220.807739 23.895205 125.758339
v 83.291740 23.895201 125.758339
v 220.807709 -11.947588 22.758331
v 83.291748 -11.947595 22.758343
v 220.807709 23.895205 22.758331
v 83.291740 23.895201 22.758343
v 220.807739 -11.947591 -80.241676
v 83.291748 -11.947595 -80.241676
v 220.807739 23.895205 -80.241676
v 83.291740 23.895201 -80.241676
v 217.170441 -11.947586 -194.747192
v 81.334129 -11.947598 -173.319580
v 217.170441 23.895205 -194.747192
v 81.334129 23.895201 -173.319580
v 133.792480 -11.947593 -331.677979
v 58.337666 -11.947590 -216.711853
v 133.792480 23.895212 -331.677979
v 58.337669 23.895206 -216.711853
v -7.683788 -11.947594 -366.782684
v -4.689928 -11.947588 -229.299316
v -7.683784 23.895201 -366.782684
v -4.689925 23.895210 -229.299316
v -150.383499 -11.947599 -319.228546
v -62.212502 -11.947588 -213.698853
v -150.383484 23.895195 -319.228546
v -62.212498 23.895203 -213.698853
v -219.189651 -11.947588 -178.407166
v -82.363167 -11.947595 -164.653687
v -219.189667 23.895205 -178.407166
v -82.363174 23.895201 -164.653687
v -220.807709 -11.947588 -67.974281
v -83.291740 -11.947598 -67.974243
v -220.807709 23.895205 -67.974289
v -83.291740 23.895199 -67.974251
v -220.807709 -11.947588 35.026390
v -83.291740 -11.947598 35.026421
v -220.807709 23.895205 35.026375
v -83.291740 23.895199 35.026421
v -220.807709 -11.947588 138.026794
v -83.291740 -11.947598 138.026825
v -220.807709 23.895205 138.026794
v -83.291740 23.895199 138.026825
v -189.726196 -11.947588 275.975800
v -71.737465 -11.947599 205.340759
v -189.726196 23.895212 275.975800
v -71.737465 23.895203 205.340759
v -53.992943 -11.947595 364.411713
v -30.765224 -11.947587 228.871613
v -53.992947 23.895197 364.411713
v -30.765226 23.895206 228.871613
v 83.303108 -11.947594 356.202026
v 41.536716 -11.947595 225.182129
v 83.303108 23.895205 356.202026
v 41.536716 23.895203 225.182129
v 203.402588 -11.947605 245.787964
v 75.757103 -11.947585 194.628693
v 203.402588 23.895189 245.787964
v 75.757118 23.895206 194.628693
vt 0.000000 0.000000
vt 1.000000 0.000000
vt 0.000000 0.000000
vt 1.000000 0.000000
vt 0.000000 0.000000
vt 0.000000 0.000000
vt 0.000000 0.000000
vt 1.000000 0.000000
vt 0.000000 0.000000
vt 0.000000 0.000000
vt 1.000000 0.000000
vt 0.000000 0.000000
vt 1.000000 0.000000
vt 0.000000 0.000000
vt 0.000000 0.000000
vt 1.000000 0.000000
vt 0.000000 0.000000
vt 0.000000 0.000000
vt 1.000000 0.000000
vt 0.000000 0.000000
vt 0.000000 0.000000
vt 0.000000 0.000000
vt 1.000000 0.000000
vt 0.000000 0.000000
vt 0.000000 0.000000
vt 1.000000 0.000000
vt 0.000000 0.000000
vt 0.000000 0.000000
vt 1.000000 0.000000
vt 0.000000 0.000000
vt 0.000000 0.000000
vt 1.000000 0.000000
vt 0.000000 0.000000
vt 0.000000 0.000000
vt 1.000000 0.000000
vt 0.000000 0.000000
vt 1.000000 0.000000
vt 0.000000 0.000000
vt 0.000000 0.000000
vt 1.000000 0.000000
vt 0.000000 0.000000
vt 0.000000 0.000000
vt 1.000000 0.000000
vt 0.000000 0.000000
vt 0.000000 0.000000
vt 1.000000 0.000000
vt 1.000000 0.000000
vt 1.000000 0.000000
vt 1.000000 0.000000
vt 1.000000 0.000000
vt 1.000000 0.000000
vt 1.000000 0.000000
vt 1.000000 0.000000
vt 1.000000 0.000000
vt 1.000000 0.000000
vt 1.000000 0.000000
vt 1.000000 0.000000
vt 1.000000 0.000000
vt 1.000000 0.000000
vt 1.000000 0.000000
vn 0.0000 0.0000 -1.0000
vn -0.1558 0.0000 -0.9878
vn -0.8360 0.0000 -0.5487
vn -0.9998 0.0000 0.0218
vn -0.7674 0.0000 0.6412
vn -0.1000 -0.0000 0.9950
vn -0.0000 0.0000 1.0000
vn 0.5136 0.0000 0.8580
vn 0.9856 0.0000 0.1689
vn 0.9528 0.0000 -0.3037
vn 0.3720 0.0000 -0.9282
usemtl None
s off
f 1/1/1 4/2/1 3/3/1
f 6/4/1 7/5/1 5/6/1
f 9/7/1 12/8/1 11/9/1
f 13/10/2 16/11/2 15/12/2
f 18/13/3 19/14/3 17/15/3
f 22/16/4 23/17/4 21/18/4
f 26/19/5 27/20/5 25/21/5
f 29/22/6 32/23/6 31/24/6
f 33/25/7 36/26/7 35/27/7
f 37/28/7 40/29/7 39/30/7
f 41/31/7 44/32/7 43/33/7
f 45/34/8 48/35/8 47/36/8
f 50/37/9 51/38/9 49/39/9
f 54/40/10 55/41/10 53/42/10
f 58/43/11 59/44/11 57/45/11
f 1/1/1 2/46/1 4/2/1
f 6/4/1 8/47/1 7/5/1
f 9/7/1 10/48/1 12/8/1
f 13/10/2 14/49/2 16/11/2
f 18/13/3 20/50/3 19/14/3
f 22/16/4 24/51/4 23/17/4
f 26/19/5 28/52/5 27/20/5
f 29/22/6 30/53/6 32/23/6
f 33/25/7 34/54/7 36/26/7
f 37/28/7 38/55/7 40/29/7
f 41/31/7 42/56/7 44/32/7
f 45/34/8 46/57/8 48/35/8
f 50/37/9 52/58/9 51/38/9
f 54/40/10 56/59/10 55/41/10
f 58/43/11 60/60/11 59/44/11
